<svg width="406" height="32" viewBox="0 0 406 32" fill="none" xmlns="http://www.w3.org/2000/svg">
<g opacity="0.5">
<path d="M61.6875 17.3906C61.5469 18.5938 61.1016 19.5234 60.3516 20.1797C59.6068 20.8307 58.6146 21.1562 57.375 21.1562C56.0312 21.1562 54.9531 20.6745 54.1406 19.7109C53.3333 18.7474 52.9297 17.4583 52.9297 15.8438V14.75C52.9297 13.6927 53.1172 12.763 53.4922 11.9609C53.8724 11.1589 54.4089 10.5443 55.1016 10.1172C55.7943 9.6849 56.5964 9.46875 57.5078 9.46875C58.7161 9.46875 59.6849 9.80729 60.4141 10.4844C61.1432 11.1562 61.5677 12.0885 61.6875 13.2812H60.1797C60.0495 12.375 59.7656 11.7188 59.3281 11.3125C58.8958 10.9062 58.2891 10.7031 57.5078 10.7031C56.5495 10.7031 55.7969 11.0573 55.25 11.7656C54.7083 12.474 54.4375 13.4818 54.4375 14.7891V15.8906C54.4375 17.125 54.6953 18.1068 55.2109 18.8359C55.7266 19.5651 56.4479 19.9297 57.375 19.9297C58.2083 19.9297 58.8464 19.7422 59.2891 19.3672C59.737 18.987 60.0339 18.3281 60.1797 17.3906H61.6875Z" fill="white"/>
<path d="M63.6484 21V12.5469H66.9453C68.0703 12.5469 68.9323 12.7448 69.5312 13.1406C70.1354 13.5312 70.4375 14.1068 70.4375 14.8672C70.4375 15.2578 70.3203 15.612 70.0859 15.9297C69.8516 16.2422 69.5052 16.4818 69.0469 16.6484C69.5573 16.7682 69.9661 17.0026 70.2734 17.3516C70.5859 17.7005 70.7422 18.1172 70.7422 18.6016C70.7422 19.3776 70.4557 19.9714 69.8828 20.3828C69.3151 20.7943 68.5104 21 67.4688 21H63.6484ZM65.0938 17.2891V19.8359H67.4844C68.0885 19.8359 68.5391 19.724 68.8359 19.5C69.138 19.276 69.2891 18.9609 69.2891 18.5547C69.2891 17.7109 68.6693 17.2891 67.4297 17.2891H65.0938ZM65.0938 16.1328H66.9609C68.3151 16.1328 68.9922 15.737 68.9922 14.9453C68.9922 14.1536 68.3516 13.7448 67.0703 13.7188H65.0938V16.1328Z" fill="white"/>
<path d="M72.2734 16.6953C72.2734 15.8672 72.4349 15.1224 72.7578 14.4609C73.0859 13.7995 73.5391 13.2891 74.1172 12.9297C74.7005 12.5703 75.3646 12.3906 76.1094 12.3906C77.2604 12.3906 78.1901 12.7891 78.8984 13.5859C79.612 14.3828 79.9688 15.4427 79.9688 16.7656V16.8672C79.9688 17.6901 79.8099 18.4297 79.4922 19.0859C79.1797 19.737 78.7292 20.2448 78.1406 20.6094C77.5573 20.974 76.8854 21.1562 76.125 21.1562C74.9792 21.1562 74.0495 20.7578 73.3359 19.9609C72.6276 19.1641 72.2734 18.1094 72.2734 16.7969V16.6953ZM73.7266 16.8672C73.7266 17.8047 73.9427 18.5573 74.375 19.125C74.8125 19.6927 75.3958 19.9766 76.125 19.9766C76.8594 19.9766 77.4427 19.6901 77.875 19.1172C78.3073 18.5391 78.5234 17.7318 78.5234 16.6953C78.5234 15.7682 78.3021 15.0182 77.8594 14.4453C77.4219 13.8672 76.8385 13.5781 76.1094 13.5781C75.3958 13.5781 74.8203 13.862 74.3828 14.4297C73.9453 14.9974 73.7266 15.8099 73.7266 16.8672Z" fill="white"/>
<path d="M85.4922 13.0312C86.5547 13.0312 87.4036 13.388 88.0391 14.1016C88.6797 14.8099 89 15.7448 89 16.9062V17.0391C89 17.8359 88.8464 18.5495 88.5391 19.1797C88.2318 19.8047 87.7891 20.2917 87.2109 20.6406C86.638 20.9844 85.9766 21.1562 85.2266 21.1562C84.0911 21.1562 83.1771 20.7786 82.4844 20.0234C81.7917 19.263 81.4453 18.2448 81.4453 16.9688V16.2656C81.4453 14.4896 81.7734 13.0781 82.4297 12.0312C83.0911 10.9844 84.0651 10.3464 85.3516 10.1172C86.0807 9.98698 86.5729 9.82812 86.8281 9.64062C87.0833 9.45312 87.2109 9.19531 87.2109 8.86719H88.3984C88.3984 9.51823 88.25 10.026 87.9531 10.3906C87.6615 10.7552 87.1927 11.013 86.5469 11.1641L85.4688 11.4062C84.6094 11.6094 83.9635 11.9531 83.5312 12.4375C83.1042 12.9167 82.8255 13.5573 82.6953 14.3594C83.4609 13.474 84.3932 13.0312 85.4922 13.0312ZM85.2109 14.2188C84.5026 14.2188 83.9401 14.4583 83.5234 14.9375C83.1068 15.4115 82.8984 16.0703 82.8984 16.9141V17.0391C82.8984 17.9453 83.1068 18.6641 83.5234 19.1953C83.9453 19.7214 84.513 19.9844 85.2266 19.9844C85.9453 19.9844 86.513 19.7188 86.9297 19.1875C87.3464 18.6562 87.5547 17.8802 87.5547 16.8594C87.5547 16.0625 87.3438 15.4245 86.9219 14.9453C86.5052 14.4609 85.9349 14.2188 85.2109 14.2188Z" fill="white"/>
<path d="M90.2422 16.6953C90.2422 15.8672 90.4036 15.1224 90.7266 14.4609C91.0547 13.7995 91.5078 13.2891 92.0859 12.9297C92.6693 12.5703 93.3333 12.3906 94.0781 12.3906C95.2292 12.3906 96.1589 12.7891 96.8672 13.5859C97.5807 14.3828 97.9375 15.4427 97.9375 16.7656V16.8672C97.9375 17.6901 97.7786 18.4297 97.4609 19.0859C97.1484 19.737 96.6979 20.2448 96.1094 20.6094C95.526 20.974 94.8542 21.1562 94.0938 21.1562C92.9479 21.1562 92.0182 20.7578 91.3047 19.9609C90.5964 19.1641 90.2422 18.1094 90.2422 16.7969V16.6953ZM91.6953 16.8672C91.6953 17.8047 91.9115 18.5573 92.3438 19.125C92.7812 19.6927 93.3646 19.9766 94.0938 19.9766C94.8281 19.9766 95.4115 19.6901 95.8438 19.1172C96.276 18.5391 96.4922 17.7318 96.4922 16.6953C96.4922 15.7682 96.2708 15.0182 95.8281 14.4453C95.3906 13.8672 94.8073 13.5781 94.0781 13.5781C93.3646 13.5781 92.7891 13.862 92.3516 14.4297C91.9141 14.9974 91.6953 15.8099 91.6953 16.8672Z" fill="white"/>
<path d="M99.1172 19.8203L99.6172 19.2031C100.18 18.474 100.5 17.3802 100.578 15.9219L100.711 12.5469H106.156V19.8203H107.242V23.4844H105.797V21H99.8984V23.4844H98.4531L98.4609 19.8203H99.1172ZM100.828 19.8203H104.711V13.8828H102.109L102.023 15.8984C101.935 17.5807 101.536 18.888 100.828 19.8203Z" fill="white"/>
<path d="M115.75 21H114.305V17.3906H110.422V21H108.969V12.5469H110.422V16.2109H114.305V12.5469H115.75V21Z" fill="white"/>
<path d="M117.695 16.6953C117.695 15.8672 117.857 15.1224 118.18 14.4609C118.508 13.7995 118.961 13.2891 119.539 12.9297C120.122 12.5703 120.786 12.3906 121.531 12.3906C122.682 12.3906 123.612 12.7891 124.32 13.5859C125.034 14.3828 125.391 15.4427 125.391 16.7656V16.8672C125.391 17.6901 125.232 18.4297 124.914 19.0859C124.602 19.737 124.151 20.2448 123.562 20.6094C122.979 20.974 122.307 21.1562 121.547 21.1562C120.401 21.1562 119.471 20.7578 118.758 19.9609C118.049 19.1641 117.695 18.1094 117.695 16.7969V16.6953ZM119.148 16.8672C119.148 17.8047 119.365 18.5573 119.797 19.125C120.234 19.6927 120.818 19.9766 121.547 19.9766C122.281 19.9766 122.865 19.6901 123.297 19.1172C123.729 18.5391 123.945 17.7318 123.945 16.6953C123.945 15.7682 123.724 15.0182 123.281 14.4453C122.844 13.8672 122.26 13.5781 121.531 13.5781C120.818 13.5781 120.242 13.862 119.805 14.4297C119.367 14.9974 119.148 15.8099 119.148 16.8672Z" fill="white"/>
</g>
<path d="M5.5 7C5.5 4.23858 7.73858 2 10.5 2H26.5C29.2614 2 31.5 4.23858 31.5 7V20C31.5 22.7614 29.2614 25 26.5 25H10.5C7.73858 25 5.5 22.7614 5.5 20V7Z" fill="white" fill-opacity="0.2"/>
<path d="M10.5 1C7.18629 1 4.5 3.68629 4.5 7V20C4.5 23.3137 7.18629 26 10.5 26H26.5C29.8137 26 32.5 23.3137 32.5 20V7C32.5 3.68629 29.8137 1 26.5 1H10.5Z" stroke="white" stroke-opacity="0.2" stroke-width="2" stroke-linejoin="round"/>
<path d="M207.711 21V9.625H211.43C212.664 9.625 213.591 9.88021 214.211 10.3906C214.836 10.901 215.148 11.6562 215.148 12.6562C215.148 13.1875 214.997 13.6589 214.695 14.0703C214.393 14.4766 213.982 14.7917 213.461 15.0156C214.076 15.1875 214.56 15.5156 214.914 16C215.273 16.4792 215.453 17.0521 215.453 17.7188C215.453 18.7396 215.122 19.5417 214.461 20.125C213.799 20.7083 212.865 21 211.656 21H207.711ZM209.211 15.6797V19.7734H211.688C212.385 19.7734 212.935 19.5938 213.336 19.2344C213.742 18.8698 213.945 18.3698 213.945 17.7344C213.945 16.3646 213.201 15.6797 211.711 15.6797H209.211ZM209.211 14.4766H211.477C212.133 14.4766 212.656 14.3125 213.047 13.9844C213.443 13.6562 213.641 13.2109 213.641 12.6484C213.641 12.0234 213.458 11.5703 213.094 11.2891C212.729 11.0026 212.174 10.8594 211.43 10.8594H209.211V14.4766Z" fill="#FE8E05"/>
<path d="M219.031 15.4609H221.227C222.185 15.4714 222.943 15.7214 223.5 16.2109C224.057 16.7005 224.336 17.3646 224.336 18.2031C224.336 19.0469 224.049 19.724 223.477 20.2344C222.904 20.7448 222.133 21 221.164 21H217.586V12.5469H219.031V15.4609ZM227.352 21H225.898V12.5469H227.352V21ZM219.031 16.6406V19.8203H221.18C221.721 19.8203 222.141 19.6823 222.438 19.4062C222.734 19.125 222.883 18.7422 222.883 18.2578C222.883 17.7891 222.737 17.4062 222.445 17.1094C222.159 16.8073 221.755 16.651 221.234 16.6406H219.031Z" fill="#FE8E05"/>
<path d="M233.586 13.0312C234.648 13.0312 235.497 13.388 236.133 14.1016C236.773 14.8099 237.094 15.7448 237.094 16.9062V17.0391C237.094 17.8359 236.94 18.5495 236.633 19.1797C236.326 19.8047 235.883 20.2917 235.305 20.6406C234.732 20.9844 234.07 21.1562 233.32 21.1562C232.185 21.1562 231.271 20.7786 230.578 20.0234C229.885 19.263 229.539 18.2448 229.539 16.9688V16.2656C229.539 14.4896 229.867 13.0781 230.523 12.0312C231.185 10.9844 232.159 10.3464 233.445 10.1172C234.174 9.98698 234.667 9.82812 234.922 9.64062C235.177 9.45312 235.305 9.19531 235.305 8.86719H236.492C236.492 9.51823 236.344 10.026 236.047 10.3906C235.755 10.7552 235.286 11.013 234.641 11.1641L233.562 11.4062C232.703 11.6094 232.057 11.9531 231.625 12.4375C231.198 12.9167 230.919 13.5573 230.789 14.3594C231.555 13.474 232.487 13.0312 233.586 13.0312ZM233.305 14.2188C232.596 14.2188 232.034 14.4583 231.617 14.9375C231.201 15.4115 230.992 16.0703 230.992 16.9141V17.0391C230.992 17.9453 231.201 18.6641 231.617 19.1953C232.039 19.7214 232.607 19.9844 233.32 19.9844C234.039 19.9844 234.607 19.7188 235.023 19.1875C235.44 18.6562 235.648 17.8802 235.648 16.8594C235.648 16.0625 235.438 15.4245 235.016 14.9453C234.599 14.4609 234.029 14.2188 233.305 14.2188Z" fill="#FE8E05"/>
<path d="M245.719 16.8672C245.719 18.1536 245.424 19.1901 244.836 19.9766C244.247 20.763 243.451 21.1562 242.445 21.1562C241.419 21.1562 240.612 20.8307 240.023 20.1797V24.25H238.578V12.5469H239.898L239.969 13.4844C240.557 12.7552 241.375 12.3906 242.422 12.3906C243.438 12.3906 244.24 12.7734 244.828 13.5391C245.422 14.3047 245.719 15.3698 245.719 16.7344V16.8672ZM244.273 16.7031C244.273 15.75 244.07 14.9974 243.664 14.4453C243.258 13.8932 242.701 13.6172 241.992 13.6172C241.117 13.6172 240.461 14.0052 240.023 14.7812V18.8203C240.456 19.5911 241.117 19.9766 242.008 19.9766C242.701 19.9766 243.25 19.7031 243.656 19.1562C244.068 18.6042 244.273 17.7865 244.273 16.7031Z" fill="#FE8E05"/>
<path d="M252.781 21C252.698 20.8333 252.63 20.5365 252.578 20.1094C251.906 20.8073 251.104 21.1562 250.172 21.1562C249.339 21.1562 248.654 20.9219 248.117 20.4531C247.586 19.9792 247.32 19.3802 247.32 18.6562C247.32 17.776 247.654 17.0938 248.32 16.6094C248.992 16.1198 249.935 15.875 251.148 15.875H252.555V15.2109C252.555 14.7057 252.404 14.3047 252.102 14.0078C251.799 13.7057 251.354 13.5547 250.766 13.5547C250.25 13.5547 249.818 13.6849 249.469 13.9453C249.12 14.2057 248.945 14.5208 248.945 14.8906H247.492C247.492 14.4688 247.641 14.0625 247.938 13.6719C248.24 13.276 248.646 12.9635 249.156 12.7344C249.672 12.5052 250.237 12.3906 250.852 12.3906C251.826 12.3906 252.589 12.6354 253.141 13.125C253.693 13.6094 253.979 14.2786 254 15.1328V19.0234C254 19.7995 254.099 20.4167 254.297 20.875V21H252.781ZM250.383 19.8984C250.836 19.8984 251.266 19.7812 251.672 19.5469C252.078 19.3125 252.372 19.0078 252.555 18.6328V16.8984H251.422C249.651 16.8984 248.766 17.4167 248.766 18.4531C248.766 18.9062 248.917 19.2604 249.219 19.5156C249.521 19.7708 249.909 19.8984 250.383 19.8984Z" fill="#FE8E05"/>
<path d="M263.172 21H261.727V17.3906H257.844V21H256.391V12.5469H257.844V16.2109H261.727V12.5469H263.172V21Z" fill="#FE8E05"/>
<path d="M265.117 16.6953C265.117 15.8672 265.279 15.1224 265.602 14.4609C265.93 13.7995 266.383 13.2891 266.961 12.9297C267.544 12.5703 268.208 12.3906 268.953 12.3906C270.104 12.3906 271.034 12.7891 271.742 13.5859C272.456 14.3828 272.812 15.4427 272.812 16.7656V16.8672C272.812 17.6901 272.654 18.4297 272.336 19.0859C272.023 19.737 271.573 20.2448 270.984 20.6094C270.401 20.974 269.729 21.1562 268.969 21.1562C267.823 21.1562 266.893 20.7578 266.18 19.9609C265.471 19.1641 265.117 18.1094 265.117 16.7969V16.6953ZM266.57 16.8672C266.57 17.8047 266.786 18.5573 267.219 19.125C267.656 19.6927 268.24 19.9766 268.969 19.9766C269.703 19.9766 270.286 19.6901 270.719 19.1172C271.151 18.5391 271.367 17.7318 271.367 16.6953C271.367 15.7682 271.146 15.0182 270.703 14.4453C270.266 13.8672 269.682 13.5781 268.953 13.5781C268.24 13.5781 267.664 13.862 267.227 14.4297C266.789 14.9974 266.57 15.8099 266.57 16.8672Z" fill="#FE8E05"/>
<path d="M164.891 1C161.577 1 158.891 3.68629 158.891 7V20C158.891 23.3137 161.577 26 164.891 26H180.891C184.204 26 186.891 23.3137 186.891 20V7C186.891 3.68629 184.204 1 180.891 1H164.891Z" fill="#FE8E05" stroke="#FE8E05" stroke-width="2" stroke-linejoin="round"/>
<g opacity="0.5">
<path d="M360.969 12.6797C360.969 12.0755 360.747 11.5964 360.305 11.2422C359.867 10.8828 359.25 10.7031 358.453 10.7031C357.786 10.7031 357.227 10.888 356.773 11.2578C356.326 11.6224 356.102 12.0755 356.102 12.6172H354.602C354.602 12.013 354.766 11.4714 355.094 10.9922C355.427 10.513 355.891 10.1406 356.484 9.875C357.078 9.60417 357.734 9.46875 358.453 9.46875C359.724 9.46875 360.711 9.75521 361.414 10.3281C362.117 10.8958 362.469 11.6875 362.469 12.7031C362.469 13.2292 362.307 13.7083 361.984 14.1406C361.661 14.5729 361.211 14.9141 360.633 15.1641C361.971 15.612 362.641 16.5 362.641 17.8281C362.641 18.849 362.26 19.6589 361.5 20.2578C360.74 20.8568 359.724 21.1562 358.453 21.1562C357.698 21.1562 357.01 21.0234 356.391 20.7578C355.776 20.487 355.297 20.1042 354.953 19.6094C354.609 19.1146 354.438 18.526 354.438 17.8438H355.938C355.938 18.4427 356.174 18.9427 356.648 19.3438C357.122 19.7396 357.724 19.9375 358.453 19.9375C359.271 19.9375 359.922 19.7474 360.406 19.3672C360.896 18.987 361.141 18.4844 361.141 17.8594C361.141 16.526 360.315 15.8464 358.664 15.8203H357.258V14.5859H358.656C359.417 14.5703 359.992 14.3984 360.383 14.0703C360.773 13.7422 360.969 13.2786 360.969 12.6797Z" fill="white"/>
<path d="M369.625 21C369.542 20.8333 369.474 20.5365 369.422 20.1094C368.75 20.8073 367.948 21.1562 367.016 21.1562C366.182 21.1562 365.497 20.9219 364.961 20.4531C364.43 19.9792 364.164 19.3802 364.164 18.6562C364.164 17.776 364.497 17.0938 365.164 16.6094C365.836 16.1198 366.779 15.875 367.992 15.875H369.398V15.2109C369.398 14.7057 369.247 14.3047 368.945 14.0078C368.643 13.7057 368.198 13.5547 367.609 13.5547C367.094 13.5547 366.661 13.6849 366.312 13.9453C365.964 14.2057 365.789 14.5208 365.789 14.8906H364.336C364.336 14.4688 364.484 14.0625 364.781 13.6719C365.083 13.276 365.49 12.9635 366 12.7344C366.516 12.5052 367.081 12.3906 367.695 12.3906C368.669 12.3906 369.432 12.6354 369.984 13.125C370.536 13.6094 370.823 14.2786 370.844 15.1328V19.0234C370.844 19.7995 370.943 20.4167 371.141 20.875V21H369.625ZM367.227 19.8984C367.68 19.8984 368.109 19.7812 368.516 19.5469C368.922 19.3125 369.216 19.0078 369.398 18.6328V16.8984H368.266C366.495 16.8984 365.609 17.4167 365.609 18.4531C365.609 18.9062 365.76 19.2604 366.062 19.5156C366.365 19.7708 366.753 19.8984 367.227 19.8984Z" fill="white"/>
<path d="M380.016 21H378.57V17.3906H374.688V21H373.234V12.5469H374.688V16.2109H378.57V12.5469H380.016V21Z" fill="white"/>
<path d="M388.805 12.5469V21H387.352V17.7109H385.172L383.18 21H381.617L383.742 17.4922C383.201 17.2943 382.784 16.9896 382.492 16.5781C382.206 16.1615 382.062 15.6771 382.062 15.125C382.062 14.3542 382.352 13.7344 382.93 13.2656C383.508 12.7917 384.281 12.5521 385.25 12.5469H388.805ZM383.516 15.1406C383.516 15.5521 383.656 15.8854 383.938 16.1406C384.219 16.3906 384.591 16.5182 385.055 16.5234H387.352V13.7188H385.273C384.737 13.7188 384.31 13.8516 383.992 14.1172C383.674 14.3776 383.516 14.7188 383.516 15.1406Z" fill="white"/>
<path d="M397.406 13.7188H394.57V21H393.125V13.7188H390.344V12.5469H397.406V13.7188Z" fill="white"/>
<path d="M398.102 16.6953C398.102 15.8672 398.263 15.1224 398.586 14.4609C398.914 13.7995 399.367 13.2891 399.945 12.9297C400.529 12.5703 401.193 12.3906 401.938 12.3906C403.089 12.3906 404.018 12.7891 404.727 13.5859C405.44 14.3828 405.797 15.4427 405.797 16.7656V16.8672C405.797 17.6901 405.638 18.4297 405.32 19.0859C405.008 19.737 404.557 20.2448 403.969 20.6094C403.385 20.974 402.714 21.1562 401.953 21.1562C400.807 21.1562 399.878 20.7578 399.164 19.9609C398.456 19.1641 398.102 18.1094 398.102 16.7969V16.6953ZM399.555 16.8672C399.555 17.8047 399.771 18.5573 400.203 19.125C400.641 19.6927 401.224 19.9766 401.953 19.9766C402.688 19.9766 403.271 19.6901 403.703 19.1172C404.135 18.5391 404.352 17.7318 404.352 16.6953C404.352 15.7682 404.13 15.0182 403.688 14.4453C403.25 13.8672 402.667 13.5781 401.938 13.5781C401.224 13.5781 400.648 13.862 400.211 14.4297C399.773 14.9974 399.555 15.8099 399.555 16.8672Z" fill="white"/>
</g>
<path d="M307.312 7C307.312 4.23858 309.551 2 312.312 2H328.312C331.074 2 333.312 4.23858 333.312 7V20C333.312 22.7614 331.074 25 328.312 25H312.312C309.551 25 307.312 22.7614 307.312 20V7Z" fill="white" fill-opacity="0.05"/>
<path d="M312.312 1C308.999 1 306.312 3.68629 306.312 7V20C306.312 23.3137 308.999 26 312.312 26H328.312C331.626 26 334.312 23.3137 334.312 20V7C334.312 3.68629 331.626 1 328.312 1H312.312Z" stroke="white" stroke-opacity="0.05" stroke-width="2" stroke-linejoin="round"/>
</svg>
